<?xml version="1.0" encoding="UTF-8"?>
<svg version="1.1" xmlns="http://www.w3.org/2000/svg" width="484" height="515">
<path d="M0 0 C2.06106304 -0.00599231 4.12212386 -0.01279947 6.18318176 -0.02035522 C11.75795345 -0.03795363 17.33266366 -0.04270808 22.90746045 -0.0439868 C26.39873654 -0.04541277 29.88999721 -0.04969087 33.38126945 -0.05498123 C45.58524433 -0.07346313 57.78917565 -0.0816544 69.99316406 -0.08007812 C81.32943415 -0.07887815 92.66551342 -0.09995713 104.00173527 -0.13156545 C113.7660732 -0.15781072 123.53034913 -0.16844193 133.29472202 -0.16716731 C139.11237269 -0.16665998 144.92985373 -0.1722154 150.74746895 -0.19352341 C156.22645506 -0.21304456 161.70511217 -0.21293629 167.18411064 -0.19849014 C169.18097292 -0.19641785 171.17785656 -0.20100712 173.17468262 -0.21321106 C201.01330056 -0.3721628 224.16612971 6.83728215 244.38842773 26.54052734 C257.91362945 40.27851692 266.62841151 58.26963794 268.68475342 77.50534058 C268.76900818 78.28619424 268.85326293 79.0670479 268.94007087 79.87156379 C269.83367621 88.86238214 269.856971 97.82683248 269.8347168 106.85351562 C269.83743556 108.73838943 269.8410014 110.62326216 269.84533691 112.50813293 C269.8543618 117.57259363 269.85095703 122.63697174 269.84457874 127.70143366 C269.83946242 133.04329788 269.84422607 138.38515572 269.84735107 143.72702026 C269.85097637 152.69904834 269.8462315 161.67104336 269.83666992 170.64306641 C269.82580815 180.95286728 269.82930024 191.26258889 269.84032273 201.57238781 C269.84946072 210.48261309 269.85064876 219.39281479 269.84544539 228.30304325 C269.84235862 233.59870057 269.84182362 238.89432092 269.84851837 244.18997574 C269.91393434 304.2849819 269.91393434 304.2849819 263.57592773 319.29052734 C263.16600586 320.26376953 262.75608398 321.23701172 262.33374023 322.23974609 C251.68916605 345.24285132 233.78907621 360.94612503 210.52905273 370.54833984 C189.02854545 378.06794731 163.73788636 375.58953192 141.28398871 375.55917835 C136.28647643 375.55404571 131.28897078 375.55882988 126.29145813 375.56195068 C117.90229962 375.56557049 109.51317654 375.56084484 101.12402344 375.55126953 C91.49069043 375.54039955 81.8574422 375.54390808 72.22411126 375.55492234 C63.8870687 375.56406509 55.55005133 375.56524638 47.21300536 375.560045 C42.26280032 375.55696197 37.31263482 375.55641261 32.36243248 375.56311798 C-2.90960198 375.60402504 -2.90960198 375.60402504 -17.33886719 374.46142578 C-18.23246854 374.39236149 -19.12606989 374.3232972 -20.04675007 374.25214005 C-41.33612369 372.21799896 -58.49507333 362.0101434 -73.42407227 347.29052734 C-74.53975586 346.19417969 -74.53975586 346.19417969 -75.67797852 345.07568359 C-95.20086594 324.55945943 -97.5770235 299.41088477 -97.56933594 272.58764648 C-97.57233188 270.497146 -97.57573541 268.40664607 -97.57951355 266.31614685 C-97.58831162 260.66327726 -97.59068984 255.01042282 -97.59132934 249.35754704 C-97.59204201 245.82075994 -97.59418039 242.28397664 -97.59682655 238.74719048 C-97.60606478 226.3945275 -97.61016319 214.0418753 -97.609375 201.68920898 C-97.60877402 190.19610133 -97.61933382 178.70304057 -97.63511866 167.20994478 C-97.64821284 157.32171695 -97.65355814 147.43350443 -97.65291959 137.545268 C-97.65266524 131.6484944 -97.65548207 125.75176256 -97.66609764 119.85499763 C-97.67581071 114.30880601 -97.67583584 108.76269581 -97.66858101 103.21650124 C-97.66753929 101.18809642 -97.6698734 99.15968644 -97.67594147 97.13129044 C-97.75232199 69.81804218 -91.96981073 47.95674044 -73.42407227 27.29052734 C-72.82723633 26.62279297 -72.23040039 25.95505859 -71.61547852 25.26708984 C-67.44598401 20.8568624 -62.73530249 17.24361462 -57.42407227 14.29052734 C-56.76407227 14.29052734 -56.10407227 14.29052734 -55.42407227 14.29052734 C-55.42407227 13.63052734 -55.42407227 12.97052734 -55.42407227 12.29052734 C-36.56302284 3.22032571 -20.95275136 -0.01218638 0 0 Z " fill="#FBFBFB" transform="translate(153.424072265625,64.70947265625)"/>
<path d="M0 0 C12.54 0 25.08 0 38 0 C39 1 39 1 39.12304783 3.20015812 C39.12166514 4.66995703 39.12166514 4.66995703 39.12025452 6.16944885 C39.12162918 7.28990601 39.12300385 8.41036316 39.12442017 9.56477356 C39.11902725 11.42485298 39.11902725 11.42485298 39.11352539 13.32250977 C39.11367142 14.61988068 39.11381744 15.91725159 39.1139679 17.25393677 C39.11425586 20.82195929 39.10835932 24.38994848 39.10139394 27.95796323 C39.09516021 31.6829062 39.09455659 35.40784986 39.09336853 39.13279724 C39.09025527 46.19117363 39.08204195 53.2495346 39.07201904 60.30790418 C39.05877245 69.84258947 39.05335795 79.37727894 39.04751682 88.91197109 C39.03810206 103.94132562 39.01818311 118.97064761 39 134 C64.08 134 89.16 134 115 134 C115 145.55 115 157.1 115 169 C77.05 169 39.1 169 0 169 C0 113.23 0 57.46 0 0 Z " fill="#080808" transform="translate(186,167)"/>
<path d="M0 0 C2.06106304 -0.00599231 4.12212386 -0.01279947 6.18318176 -0.02035522 C11.75795345 -0.03795363 17.33266366 -0.04270808 22.90746045 -0.0439868 C26.39873654 -0.04541277 29.88999721 -0.04969087 33.38126945 -0.05498123 C45.58524433 -0.07346313 57.78917565 -0.0816544 69.99316406 -0.08007812 C81.32943415 -0.07887815 92.66551342 -0.09995713 104.00173527 -0.13156545 C113.7660732 -0.15781072 123.53034913 -0.16844193 133.29472202 -0.16716731 C139.11237269 -0.16665998 144.92985373 -0.1722154 150.74746895 -0.19352341 C156.22645506 -0.21304456 161.70511217 -0.21293629 167.18411064 -0.19849014 C169.18097292 -0.19641785 171.17785656 -0.20100712 173.17468262 -0.21321106 C201.01330056 -0.3721628 224.16612971 6.83728215 244.38842773 26.54052734 C257.91362945 40.27851692 266.62841151 58.26963794 268.68475342 77.50534058 C268.76900818 78.28619424 268.85326293 79.0670479 268.94007087 79.87156379 C269.83367621 88.86238214 269.856971 97.82683248 269.8347168 106.85351562 C269.83743556 108.73838943 269.8410014 110.62326216 269.84533691 112.50813293 C269.8543618 117.57259363 269.85095703 122.63697174 269.84457874 127.70143366 C269.83946242 133.04329788 269.84422607 138.38515572 269.84735107 143.72702026 C269.85097637 152.69904834 269.8462315 161.67104336 269.83666992 170.64306641 C269.82580815 180.95286728 269.82930024 191.26258889 269.84032273 201.57238781 C269.84946072 210.48261309 269.85064876 219.39281479 269.84544539 228.30304325 C269.84235862 233.59870057 269.84182362 238.89432092 269.84851837 244.18997574 C269.91393434 304.2849819 269.91393434 304.2849819 263.57592773 319.29052734 C263.16600586 320.26376953 262.75608398 321.23701172 262.33374023 322.23974609 C251.68916605 345.24285132 233.78907621 360.94612503 210.52905273 370.54833984 C189.02854545 378.06794731 163.73788636 375.58953192 141.28398871 375.55917835 C136.28647643 375.55404571 131.28897078 375.55882988 126.29145813 375.56195068 C117.90229962 375.56557049 109.51317654 375.56084484 101.12402344 375.55126953 C91.49069043 375.54039955 81.8574422 375.54390808 72.22411126 375.55492234 C63.8870687 375.56406509 55.55005133 375.56524638 47.21300536 375.560045 C42.26280032 375.55696197 37.31263482 375.55641261 32.36243248 375.56311798 C-2.90960198 375.60402504 -2.90960198 375.60402504 -17.33886719 374.46142578 C-18.23246854 374.39236149 -19.12606989 374.3232972 -20.04675007 374.25214005 C-41.33612369 372.21799896 -58.49507333 362.0101434 -73.42407227 347.29052734 C-74.53975586 346.19417969 -74.53975586 346.19417969 -75.67797852 345.07568359 C-95.20086594 324.55945943 -97.5770235 299.41088477 -97.56933594 272.58764648 C-97.57233188 270.497146 -97.57573541 268.40664607 -97.57951355 266.31614685 C-97.58831162 260.66327726 -97.59068984 255.01042282 -97.59132934 249.35754704 C-97.59204201 245.82075994 -97.59418039 242.28397664 -97.59682655 238.74719048 C-97.60606478 226.3945275 -97.61016319 214.0418753 -97.609375 201.68920898 C-97.60877402 190.19610133 -97.61933382 178.70304057 -97.63511866 167.20994478 C-97.64821284 157.32171695 -97.65355814 147.43350443 -97.65291959 137.545268 C-97.65266524 131.6484944 -97.65548207 125.75176256 -97.66609764 119.85499763 C-97.67581071 114.30880601 -97.67583584 108.76269581 -97.66858101 103.21650124 C-97.66753929 101.18809642 -97.6698734 99.15968644 -97.67594147 97.13129044 C-97.75232199 69.81804218 -91.96981073 47.95674044 -73.42407227 27.29052734 C-72.82723633 26.62279297 -72.23040039 25.95505859 -71.61547852 25.26708984 C-67.44598401 20.8568624 -62.73530249 17.24361462 -57.42407227 14.29052734 C-56.76407227 14.29052734 -56.10407227 14.29052734 -55.42407227 14.29052734 C-55.42407227 13.63052734 -55.42407227 12.97052734 -55.42407227 12.29052734 C-36.56302284 3.22032571 -20.95275136 -0.01218638 0 0 Z M-15.42407227 4.29052734 C-17.40367031 4.28519868 -19.38344094 4.24190307 -21.36157227 4.16552734 C-26.2784043 4.12350314 -29.17191419 4.68124852 -33.42407227 7.29052734 C-34.66157227 7.74427734 -35.89907227 8.19802734 -37.17407227 8.66552734 C-49.30854425 13.13248667 -60.69125874 19.69402897 -69.42407227 29.29052734 C-73.42407227 33.29052734 -73.42407227 33.29052734 -75.42407227 35.10302734 C-77.55144688 37.42984333 -78.92927163 39.73811412 -80.39672852 42.50927734 C-81.42407227 44.29052734 -81.42407227 44.29052734 -82.84985352 45.99755859 C-85.08634026 49.2551708 -86.23702629 52.76935466 -87.54907227 56.47802734 C-90.31083898 64.17729406 -90.31083898 64.17729406 -91.42407227 65.29052734 C-93.37405118 79.17734004 -93.75525092 93.05561431 -93.83813477 107.05615234 C-93.85704979 109.14383573 -93.87667828 111.23151276 -93.8969574 113.31918335 C-93.94860071 118.90335815 -93.98832291 124.4875563 -94.02516556 130.07184601 C-94.05728704 134.73242829 -94.09629103 139.39294434 -94.13493443 144.05347633 C-94.52657499 191.79854256 -94.53368119 239.54428284 -94.42407227 287.29052734 C-93.76407227 287.29052734 -93.10407227 287.29052734 -92.42407227 287.29052734 C-92.51946289 288.54349609 -92.61485352 289.79646484 -92.71313477 291.08740234 C-92.82570306 292.73840395 -92.93764973 294.38944802 -93.04907227 296.04052734 C-93.14575195 297.27802734 -93.14575195 297.27802734 -93.24438477 298.54052734 C-93.29594727 299.33974609 -93.34750977 300.13896484 -93.40063477 300.96240234 C-93.45300293 301.69555664 -93.50537109 302.42871094 -93.55932617 303.18408203 C-93.40052125 305.65731106 -92.62325278 307.14297531 -91.42407227 309.29052734 C-90.93668592 310.86516014 -90.47977628 312.44945603 -90.04907227 314.04052734 C-88.67035314 318.80594628 -86.7684924 322.92505537 -84.42407227 327.29052734 C-83.76407227 327.29052734 -83.10407227 327.29052734 -82.42407227 327.29052734 C-82.15594727 328.52802734 -81.88782227 329.76552734 -81.61157227 331.04052734 C-80.77850576 334.37279336 -79.90899182 336.80560779 -77.42407227 339.29052734 C-76.76407227 339.29052734 -76.10407227 339.29052734 -75.42407227 339.29052734 C-75.42407227 339.95052734 -75.42407227 340.61052734 -75.42407227 341.29052734 C-74.09073893 342.95719401 -74.09073893 342.95719401 -72.42407227 344.29052734 C-71.76407227 344.29052734 -71.10407227 344.29052734 -70.42407227 344.29052734 C-70.42407227 345.28052734 -70.42407227 346.27052734 -70.42407227 347.29052734 C-66.52182572 351.75372183 -60.78709914 355.7914674 -55.42407227 358.29052734 C-54.10407227 358.29052734 -52.78407227 358.29052734 -51.42407227 358.29052734 C-51.42407227 358.95052734 -51.42407227 359.61052734 -51.42407227 360.29052734 C-50.37219727 360.70302734 -49.32032227 361.11552734 -48.23657227 361.54052734 C-45.64201192 362.63682045 -44.03928273 363.60202363 -41.79907227 365.41552734 C-39.23674721 367.43841554 -37.60484413 367.84875347 -34.42407227 368.29052734 C-34.09407227 368.62052734 -33.76407227 368.95052734 -33.42407227 369.29052734 C-31.42448863 369.33133517 -29.42361973 369.33307091 -27.42407227 369.29052734 C-27.42407227 369.95052734 -27.42407227 370.61052734 -27.42407227 371.29052734 C-26.34125977 371.25958984 -26.34125977 371.25958984 -25.23657227 371.22802734 C-22.42407227 371.29052734 -22.42407227 371.29052734 -20.26753712 371.78691769 C-16.54441353 372.44632481 -12.88336784 372.42493558 -9.11613464 372.41078186 C-8.28290139 372.41163629 -7.44966814 372.41249071 -6.59118539 372.41337103 C-3.80132823 372.41501713 -1.0115313 372.40951867 1.77832031 372.40405273 C3.77903237 372.40377065 5.77974454 372.40392901 7.78045654 372.40449524 C13.21181448 372.40478238 18.64315037 372.39889904 24.07450318 372.39192128 C29.75065134 372.38567395 35.42679999 372.38508285 41.10295105 372.38389587 C51.85153549 372.38078664 62.60010977 372.37257872 73.34868973 372.36254638 C85.58557271 372.35137262 97.82245617 372.34587161 110.05934298 372.34085095 C135.23154353 372.33039579 160.40373506 372.31280421 185.57592773 372.29052734 C185.57592773 371.63052734 185.57592773 370.97052734 185.57592773 370.29052734 C186.39834961 370.40912109 187.22077148 370.52771484 188.06811523 370.64990234 C196.13991488 371.58198082 201.35358326 370.88898419 208.57592773 367.29052734 C210.23725659 366.61066806 211.90344491 365.94246555 213.57592773 365.29052734 C214.40092773 364.96052734 215.22592773 364.63052734 216.07592773 364.29052734 C216.90092773 363.96052734 217.72592773 363.63052734 218.57592773 363.29052734 C219.44217773 362.93990234 220.30842773 362.58927734 221.20092773 362.22802734 C222.97242054 361.52875387 224.76914797 360.89278727 226.57592773 360.29052734 C227.19467773 359.34177734 227.81342773 358.39302734 228.45092773 357.41552734 C230.62600296 354.2168873 232.26967762 353.12733296 235.57592773 351.29052734 C235.57592773 350.63052734 235.57592773 349.97052734 235.57592773 349.29052734 C236.56592773 349.29052734 237.55592773 349.29052734 238.57592773 349.29052734 C244.95520144 343.77331765 249.47040185 336.77538607 253.41577148 329.39208984 C254.57592773 327.29052734 254.57592773 327.29052734 256.76342773 324.04052734 C258.48328313 321.43109157 259.55075037 319.22936914 260.57592773 316.29052734 C260.82342773 315.58541016 261.07092773 314.88029297 261.32592773 314.15380859 C263.63329318 307.44248122 264.7134331 301.67705568 264.57592773 294.54052734 C264.5302882 292.11706795 264.52861222 289.71544759 264.57592773 287.29052734 C264.90592773 286.96052734 265.23592773 286.63052734 265.57592773 286.29052734 C265.67817946 283.66424172 265.71479152 281.06410443 265.7096405 278.43719482 C265.71190606 277.60430097 265.71417162 276.77140711 265.71650583 275.91327405 C265.72287628 273.09988376 265.72201449 270.28654127 265.72119141 267.47314453 C265.72418125 265.46455828 265.72758337 263.4559726 265.73136902 261.4473877 C265.74023706 255.971539 265.74254847 250.49570591 265.7431848 245.01985073 C265.74413272 240.44802028 265.74781017 235.87619349 265.7513569 231.30436444 C265.75951422 220.50840906 265.7619402 209.71246202 265.76123047 198.91650391 C265.76063124 187.79398432 265.77114918 176.67151349 265.78697413 165.54900622 C265.80007816 155.99726724 265.80541307 146.44554411 265.80477506 136.89379621 C265.80452065 131.1907844 265.8073393 125.48781576 265.81795311 119.78481293 C265.82768072 114.41029204 265.82768143 109.03585513 265.82043648 103.66133118 C265.81939599 101.69624457 265.82172141 99.73115262 265.82779694 97.76607513 C265.85770071 87.41697055 265.62787692 77.4833077 263.57592773 67.29052734 C263.38932681 66.35127789 263.20272589 65.41202843 263.01047039 64.44431686 C262.86707131 63.73356632 262.72367224 63.02281578 262.57592773 62.29052734 C261.91592773 62.29052734 261.25592773 62.29052734 260.57592773 62.29052734 C260.45217773 61.38302734 260.32842773 60.47552734 260.20092773 59.54052734 C259.65483096 56.70082412 259.00328971 54.76462143 257.57592773 52.29052734 C256.91592773 52.29052734 256.25592773 52.29052734 255.57592773 52.29052734 C255.24592773 49.32052734 254.91592773 46.35052734 254.57592773 43.29052734 C253.91592773 43.29052734 253.25592773 43.29052734 252.57592773 43.29052734 C252.24592773 41.97052734 251.91592773 40.65052734 251.57592773 39.29052734 C250.91592773 39.29052734 250.25592773 39.29052734 249.57592773 39.29052734 C249.57592773 38.63052734 249.57592773 37.97052734 249.57592773 37.29052734 C248.91592773 37.29052734 248.25592773 37.29052734 247.57592773 37.29052734 C247.31553711 36.71431641 247.05514648 36.13810547 246.78686523 35.54443359 C245.48872965 33.12822639 244.01400343 31.28258255 242.20092773 29.22802734 C241.61569336 28.55642578 241.03045898 27.88482422 240.42749023 27.19287109 C238.58573744 25.30060609 236.77864229 23.74540671 234.57592773 22.29052734 C233.91592773 22.29052734 233.25592773 22.29052734 232.57592773 22.29052734 C232.24592773 20.97052734 231.91592773 19.65052734 231.57592773 18.29052734 C229.92592773 17.96052734 228.27592773 17.63052734 226.57592773 17.29052734 C226.24592773 16.30052734 225.91592773 15.31052734 225.57592773 14.29052734 C224.83342773 14.16677734 224.09092773 14.04302734 223.32592773 13.91552734 C220.57592773 13.29052734 220.57592773 13.29052734 218.38842773 12.16552734 C217.79030273 11.87677734 217.19217773 11.58802734 216.57592773 11.29052734 C215.91592773 11.62052734 215.25592773 11.95052734 214.57592773 12.29052734 C214.90592773 11.30052734 215.23592773 10.31052734 215.57592773 9.29052734 C210.15964629 7.00998779 206.5003192 6.18473464 200.57592773 6.29052734 C199.36183825 5.9676987 198.14774878 5.64487005 196.89686871 5.31225872 C192.52911249 4.17406881 188.43701155 3.99794546 183.94087219 4.00532532 C183.10860349 3.99882735 182.27633479 3.99232938 181.41884583 3.98563451 C178.64996652 3.96639828 175.88124307 3.96108992 173.11230469 3.95581055 C171.11925799 3.94486742 169.12621579 3.93307581 167.13317871 3.92050171 C161.73474328 3.88897806 156.33632709 3.86968065 150.9378283 3.85287881 C145.28535952 3.83349302 139.63294418 3.80377896 133.98051453 3.7754364 C124.49240034 3.72941153 115.00427941 3.69100146 105.51611328 3.6574707 C94.54492222 3.61863867 83.5738177 3.56935939 72.60269767 3.51414043 C62.0457357 3.46111393 51.4887565 3.41393369 40.93175316 3.36995506 C36.4394357 3.35122926 31.94713149 3.33072933 27.45482826 3.30886269 C22.16809996 3.28350349 16.88137643 3.2633485 11.59461212 3.24723434 C9.65356704 3.24052481 7.71252708 3.23207933 5.77149773 3.22178078 C3.12433339 3.20803962 0.47722425 3.20059363 -2.16996765 3.19477844 C-2.93980899 3.18933889 -3.70965033 3.18389934 -4.50282019 3.17829496 C-8.2850348 3.17691968 -11.73947018 3.45079537 -15.42407227 4.29052734 Z " fill="#E6E6E6" transform="translate(153.424072265625,64.70947265625)"/>
<path d="M0 0 C2.09026585 0.00056484 4.1805321 0.00024613 6.27079773 -0.00088501 C11.9187617 -0.00145668 17.56663998 0.01026747 23.21458411 0.02426291 C29.12692307 0.03680134 35.03926418 0.03794322 40.95161438 0.04031372 C52.13562938 0.04651935 63.31960508 0.06291775 74.5036028 0.0830127 C87.24121586 0.10540026 99.97883083 0.11637231 112.71645868 0.12640357 C138.90775527 0.1472848 165.09901703 0.18244292 191.2902832 0.22705078 C191.2902832 0.88705078 191.2902832 1.54705078 191.2902832 2.22705078 C190.20892121 2.23128272 189.12755922 2.23551466 188.01342869 2.23987484 C161.74235869 2.34291433 135.47131699 2.4516426 109.20029545 2.56639004 C96.49600726 2.62174754 83.79171626 2.67523362 71.08740234 2.72436523 C60.01868128 2.76717618 48.94998111 2.81344625 37.88129228 2.86392933 C32.01658717 2.89055524 26.15188627 2.91540884 20.28715706 2.9361248 C14.7739776 2.95565352 9.260838 2.97978578 3.74769402 3.00754166 C1.71791174 3.01693212 -0.3118793 3.02460015 -2.3416748 3.03046989 C-5.10017746 3.03869733 -7.8585825 3.05296422 -10.61705017 3.0688324 C-11.43123647 3.0698105 -12.24542277 3.07078861 -13.08428138 3.07179636 C-16.69516303 2.7611642 -16.69516303 2.7611642 -19.7097168 4.22705078 C-22.44779947 4.724884 -25.19465718 5.1273758 -27.94799805 5.53173828 C-30.89876079 6.27464602 -32.3715963 7.34066906 -34.7097168 9.22705078 C-36.36048782 9.68926667 -38.01224413 10.14851006 -39.6706543 10.58251953 C-50.26207927 13.93038375 -60.97568743 20.71608901 -68.36987305 28.94189453 C-69.7097168 30.22705078 -69.7097168 30.22705078 -71.7097168 30.22705078 C-71.9778418 31.01080078 -72.2459668 31.79455078 -72.5222168 32.60205078 C-73.7097168 35.22705078 -73.7097168 35.22705078 -76.7097168 37.22705078 C-77.71700219 38.92684489 -78.72380871 40.62870799 -79.6472168 42.37548828 C-80.7097168 44.22705078 -80.7097168 44.22705078 -82.1394043 45.94189453 C-84.3752964 49.19561812 -85.52386521 52.70925422 -86.8347168 56.41455078 C-89.59648351 64.11381749 -89.59648351 64.11381749 -90.7097168 65.22705078 C-92.67107675 79.17163137 -93.04129176 93.1094931 -93.1237793 107.16845703 C-93.14264529 109.26972072 -93.16222764 111.37097807 -93.1824646 113.472229 C-93.23396129 119.08373675 -93.27361992 124.6952688 -93.31060791 130.30688858 C-93.34299876 134.98592659 -93.38272793 139.66489204 -93.42218399 144.34387493 C-93.62793354 168.98711098 -93.74015642 193.62982603 -93.7331543 218.27392578 C-93.73287861 219.33707945 -93.73260292 220.40023312 -93.73231888 221.49560356 C-93.7284654 231.64170729 -93.71594053 241.78773168 -93.68223 251.93378258 C-93.67051731 255.61601436 -93.66226185 259.29824985 -93.6544075 262.98049164 C-93.64742403 265.48476818 -93.6348085 267.98897317 -93.62191772 270.4932251 C-93.61834228 271.9914951 -93.61503933 273.4897658 -93.61206055 274.98803711 C-93.60682373 276.27382156 -93.60158691 277.55960602 -93.59619141 278.88435364 C-93.69541936 281.80607005 -94.02615913 284.39320503 -94.7097168 287.22705078 C-94.0497168 287.22705078 -93.3897168 287.22705078 -92.7097168 287.22705078 C-92.7097168 292.50705078 -92.7097168 297.78705078 -92.7097168 303.22705078 C-93.3697168 302.89705078 -94.0297168 302.56705078 -94.7097168 302.22705078 C-95.1237793 300.16064453 -95.1237793 300.16064453 -95.3347168 297.66455078 C-95.40948242 296.83826172 -95.48424805 296.01197266 -95.5612793 295.16064453 C-95.61026367 294.52255859 -95.65924805 293.88447266 -95.7097168 293.22705078 C-96.3697168 293.22705078 -97.0297168 293.22705078 -97.7097168 293.22705078 C-97.75648008 265.5321728 -97.79172686 237.83730075 -97.81334114 210.1423912 C-97.82364468 197.28257679 -97.83768742 184.42278693 -97.8605957 171.56298828 C-97.88055777 160.35171372 -97.89343993 149.14045696 -97.89789379 137.92916512 C-97.90049638 131.99533399 -97.90659447 126.06155375 -97.92117691 120.12773895 C-97.93480531 114.53655773 -97.93892882 108.94544812 -97.93593216 103.35425186 C-97.93647997 101.30811549 -97.94042594 99.26197659 -97.94812775 97.21585464 C-98.04607576 69.83909947 -92.3024111 47.94558854 -73.7097168 27.22705078 C-73.11288086 26.55931641 -72.51604492 25.89158203 -71.90112305 25.20361328 C-67.73162854 20.79338584 -63.02094702 17.18013805 -57.7097168 14.22705078 C-57.0497168 14.22705078 -56.3897168 14.22705078 -55.7097168 14.22705078 C-55.7097168 13.56705078 -55.7097168 12.90705078 -55.7097168 12.22705078 C-36.72639563 3.09804917 -21.09009624 -0.07999917 0 0 Z " fill="#E1E1E1" transform="translate(153.709716796875,64.77294921875)"/>
<path d="M0 0 C2.09026585 0.00056484 4.1805321 0.00024613 6.27079773 -0.00088501 C11.9187617 -0.00145668 17.56663998 0.01026747 23.21458411 0.02426291 C29.12692307 0.03680134 35.03926418 0.03794322 40.95161438 0.04031372 C52.13562938 0.04651935 63.31960508 0.06291775 74.5036028 0.0830127 C87.24121586 0.10540026 99.97883083 0.11637231 112.71645868 0.12640357 C138.90775527 0.1472848 165.09901703 0.18244292 191.2902832 0.22705078 C191.2902832 0.88705078 191.2902832 1.54705078 191.2902832 2.22705078 C190.20892121 2.23128272 189.12755922 2.23551466 188.01342869 2.23987484 C161.74235869 2.34291433 135.47131699 2.4516426 109.20029545 2.56639004 C96.49600726 2.62174754 83.79171626 2.67523362 71.08740234 2.72436523 C60.01868128 2.76717618 48.94998111 2.81344625 37.88129228 2.86392933 C32.01658717 2.89055524 26.15188627 2.91540884 20.28715706 2.9361248 C14.7739776 2.95565352 9.260838 2.97978578 3.74769402 3.00754166 C1.71791174 3.01693212 -0.3118793 3.02460015 -2.3416748 3.03046989 C-5.10017746 3.03869733 -7.8585825 3.05296422 -10.61705017 3.0688324 C-11.43123647 3.0698105 -12.24542277 3.07078861 -13.08428138 3.07179636 C-16.69516303 2.7611642 -16.69516303 2.7611642 -19.7097168 4.22705078 C-22.44779947 4.724884 -25.19465718 5.1273758 -27.94799805 5.53173828 C-30.89876079 6.27464602 -32.3715963 7.34066906 -34.7097168 9.22705078 C-36.36048782 9.68926667 -38.01224413 10.14851006 -39.6706543 10.58251953 C-50.26207927 13.93038375 -60.97568743 20.71608901 -68.36987305 28.94189453 C-69.7097168 30.22705078 -69.7097168 30.22705078 -71.7097168 30.22705078 C-71.9778418 31.01080078 -72.2459668 31.79455078 -72.5222168 32.60205078 C-73.7097168 35.22705078 -73.7097168 35.22705078 -76.7097168 37.22705078 C-77.71700219 38.92684489 -78.72380871 40.62870799 -79.6472168 42.37548828 C-80.7097168 44.22705078 -80.7097168 44.22705078 -82.1784668 46.07470703 C-84.64853298 49.5466623 -85.90288294 53.49394631 -87.4284668 57.44970703 C-88.63018164 60.05464379 -89.5654435 61.39643448 -91.7097168 63.22705078 C-92.6997168 64.21705078 -92.6997168 64.21705078 -93.7097168 65.22705078 C-93.22776771 59.27861066 -92.01102553 54.82191599 -89.2722168 49.53955078 C-88.92094727 48.85183594 -88.56967773 48.16412109 -88.20776367 47.45556641 C-81.21033989 34.2300691 -70.97721244 21.49389487 -57.7097168 14.22705078 C-57.0497168 14.22705078 -56.3897168 14.22705078 -55.7097168 14.22705078 C-55.7097168 13.56705078 -55.7097168 12.90705078 -55.7097168 12.22705078 C-36.72639563 3.09804917 -21.09009624 -0.07999917 0 0 Z " fill="#DDDDDE" transform="translate(153.709716796875,64.77294921875)"/>
<path d="M0 0 C-5.23294622 2.59961576 -9.45952532 3.42064838 -15.32498169 3.31607056 C-16.1359782 3.31384471 -16.94697471 3.31161887 -17.78254688 3.30932558 C-20.48569838 3.29826117 -23.18814303 3.26556657 -25.89111328 3.23291016 C-27.83473937 3.22055789 -29.77837448 3.20956045 -31.72201538 3.19981384 C-35.9001561 3.17593307 -40.07806943 3.14244155 -44.25607681 3.10142899 C-50.86130732 3.03659233 -57.46657602 2.99280719 -64.07199097 2.95175171 C-74.51716247 2.88427725 -84.96216156 2.80219973 -95.40717781 2.71413267 C-114.11989023 2.55681894 -132.83278487 2.42398747 -151.54572475 2.29695547 C-158.11344945 2.25178804 -164.68108275 2.20013428 -171.24871469 2.14308572 C-175.33079865 2.10842745 -179.41290647 2.07784003 -183.49502945 2.0481739 C-185.38931776 2.03347208 -187.28359307 2.01696989 -189.17784882 1.99854469 C-191.76154968 1.97360911 -194.34522273 1.95499383 -196.9289856 1.93789673 C-197.68005431 1.92904658 -198.43112303 1.92019643 -199.20495141 1.9110781 C-202.95220298 1.89306563 -206.34884027 2.1827221 -210 3 C-212.33301986 3.03824623 -214.66711508 3.04574284 -217 3 C-213.92147318 -0.08215654 -211.26162977 -0.359899 -207.00130695 -0.41807914 C-206.19790553 -0.41391368 -205.39450412 -0.40974823 -204.5667572 -0.40545654 C-203.7079102 -0.41280894 -202.84906321 -0.42016133 -201.96419054 -0.42773652 C-199.08140571 -0.448759 -196.19901786 -0.44844207 -193.31616211 -0.44824219 C-191.25149353 -0.45889339 -189.18683129 -0.47084199 -187.12217712 -0.48399353 C-181.51081614 -0.51591023 -175.89954713 -0.52924746 -170.28810954 -0.53904247 C-164.42246263 -0.55212875 -158.55689482 -0.58126918 -152.69129944 -0.60845947 C-142.84133492 -0.65178777 -132.99138568 -0.68389199 -123.14135742 -0.70849609 C-110.48780947 -0.74016369 -97.83440603 -0.79036436 -85.1809454 -0.84641647 C-74.31509908 -0.89439222 -63.44922402 -0.93374708 -52.58333898 -0.97177219 C-49.08424643 -0.98439519 -45.5851602 -0.99822915 -42.08607292 -1.01222992 C-36.59420603 -1.0336655 -31.10234832 -1.04973266 -25.61045265 -1.06158638 C-23.59116988 -1.06670696 -21.57189065 -1.07354816 -19.55261993 -1.08220482 C-16.80382017 -1.09366645 -14.05507883 -1.09891111 -11.30625916 -1.10247803 C-10.50062702 -1.10723546 -9.69499488 -1.11199289 -8.86494964 -1.11689448 C-5.64153218 -1.11532558 -3.08111689 -1.02703896 0 0 Z " fill="#EBEBEC" transform="translate(348,67)"/>
<path d="M0 0 C0.5625 1.9375 0.5625 1.9375 1 4 C0.67 4.33 0.34 4.66 0 5 C-1.95599794 18.91729401 -2.32960819 32.82796598 -2.4140625 46.859375 C-2.43283658 48.87104022 -2.45241425 50.88269808 -2.4727478 52.89434814 C-2.52341754 58.11533203 -2.56338572 63.33634127 -2.60089111 68.55743408 C-2.64134652 73.91465179 -2.69224619 79.27177006 -2.7421875 84.62890625 C-2.83817197 95.08586698 -2.92281685 105.54288474 -3 116 C-3.33 116 -3.66 116 -4 116 C-4.02321709 103.26471405 -4.04096275 90.52943317 -4.05181217 77.79413033 C-4.05702054 71.87999852 -4.0640809 65.96588125 -4.07543945 60.05175781 C-4.08634121 54.33943413 -4.09229225 48.62712439 -4.09487724 42.91479111 C-4.09671838 40.74042415 -4.1003136 38.56605792 -4.10573006 36.39169693 C-4.11303729 33.3354963 -4.11398688 30.27935255 -4.11352539 27.22314453 C-4.11712067 26.33337418 -4.12071594 25.44360382 -4.12442017 24.52687073 C-4.11603012 19.35887838 -3.7884392 14.34496121 -3.11710262 9.21871758 C-2.99576368 6.91973535 -3.32611296 5.18934403 -4 3 C-3.34 3 -2.68 3 -2 3 C-1.34 2.01 -0.68 1.02 0 0 Z " fill="#EEEEEE" transform="translate(63,125)"/>
<path d="M0 0 C0.33 0 0.66 0 1 0 C1.54957922 5.49579218 -0.03413634 9.46460996 -3 14 C-3.99 14.495 -3.99 14.495 -5 15 C-6.23076923 9.58461538 -6.23076923 9.58461538 -5.0625 6.625 C-4.711875 6.08875 -4.36125 5.5525 -4 5 C-3.34 5 -2.68 5 -2 5 C-1.34 3.35 -0.68 1.7 0 0 Z " fill="#E2E2E2" transform="translate(418,373)"/>
<path d="M0 0 C0.66 0.33 1.32 0.66 2 1 C-0.03454262 3.18524948 -1.85582936 4.91497629 -4.4375 6.4375 C-7.42514365 8.25923393 -9.60322121 10.46626243 -12 13 C-12.66 12.67 -13.32 12.34 -14 12 C-11.8150737 7.71902576 -9.50254336 5.64738376 -5.4375 3.125 C-4.46683594 2.50882812 -3.49617188 1.89265625 -2.49609375 1.2578125 C-1.26052734 0.63519531 -1.26052734 0.63519531 0 0 Z " fill="#E1E1E1" transform="translate(98,78)"/>
<path d="M0 0 C0.94928272 2.56306335 1.06529109 3.78780395 0.25 6.4375 C-3.25806452 13.62903226 -3.25806452 13.62903226 -6 15 C-5.7215625 14.0409375 -5.7215625 14.0409375 -5.4375 13.0625 C-5.293125 12.381875 -5.14875 11.70125 -5 11 C-5.33 10.67 -5.66 10.34 -6 10 C-5.18957164 8.51969728 -4.37659652 7.04078858 -3.5625 5.5625 C-2.88380859 4.32693359 -2.88380859 4.32693359 -2.19140625 3.06640625 C-1 1 -1 1 0 0 Z " fill="#EBEBED" transform="translate(405,396)"/>
<path d="M0 0 C3.64907629 1.21635876 3.8828659 2.07242677 5.625 5.375 C6.05039063 6.16648437 6.47578125 6.95796875 6.9140625 7.7734375 C8 10 8 10 9 13 C4.6180876 11.53936253 2.05288059 7.98797296 0 4 C0 2.68 0 1.36 0 0 Z " fill="#DFDFE0" transform="translate(68,393)"/>
<path d="M0 0 C0.7425 0.33 1.485 0.66 2.25 1 C5.13883312 2.22782871 5.13883312 2.22782871 9 2 C9.66 2.66 10.32 3.32 11 4 C9.35 4.66 7.7 5.32 6 6 C5.67 5.34 5.34 4.68 5 4 C1.97065509 3.34227572 1.97065509 3.34227572 -1 3 C-0.67 2.01 -0.34 1.02 0 0 Z " fill="#E8E8E8" transform="translate(369,74)"/>
<path d="M0 0 C3.21524305 1.40844718 5.32183868 3.10344786 7.75 5.625 C8.67039062 6.57246094 8.67039062 6.57246094 9.609375 7.5390625 C10.29773438 8.26222656 10.29773438 8.26222656 11 9 C10.67 9.99 10.34 10.98 10 12 C9.67 11.01 9.34 10.02 9 9 C8.34 9 7.68 9 7 9 C6.360625 8.195625 5.72125 7.39125 5.0625 6.5625 C3.18964068 3.76279268 3.18964068 3.76279268 0 3 C0 2.01 0 1.02 0 0 Z " fill="#DBDBDB" transform="translate(392,88)"/>
<path d="M0 0 C0.99 0 1.98 0 3 0 C1.85569823 3.87302138 0.76679902 7.00263439 -2 10 C-2.66 10 -3.32 10 -4 10 C-3.52449439 8.51965236 -3.04448784 7.04074979 -2.5625 5.5625 C-2.29566406 4.73878906 -2.02882813 3.91507812 -1.75390625 3.06640625 C-1 1 -1 1 0 0 Z " fill="#E1E1E4" transform="translate(407,395)"/>
<path d="M0 0 C0.66 0.33 1.32 0.66 2 1 C-0.31 4.3 -2.62 7.6 -5 11 C-5.33 10.34 -5.66 9.68 -6 9 C-4.4775751 5.42230149 -2.97069541 2.54631035 0 0 Z " fill="#DEDEDE" transform="translate(77,96)"/>
<path d="M0 0 C3 0 3 0 5.1875 2 C5.785625 2.66 6.38375 3.32 7 4 C6.67 4.66 6.34 5.32 6 6 C4 5 2 4 0 3 C0 2.01 0 1.02 0 0 Z " fill="#E7E7E7" transform="translate(386,84)"/>
<path d="M0 0 C0.33 0.66 0.66 1.32 1 2 C1.99 1.67 2.98 1.34 4 1 C4 2.98 4 4.96 4 7 C3.67 6.01 3.34 5.02 3 4 C1.68 4.33 0.36 4.66 -1 5 C-1.33 3.68 -1.66 2.36 -2 1 C-1.34 0.67 -0.68 0.34 0 0 Z " fill="#E9E9EB" transform="translate(68,390)"/>
</svg>
