<svg xmlns="http://www.w3.org/2000/svg" width="47" height="47" viewBox="0 0 47 47" version="1.1">
	<path d="M 9.455 8.455 C 7.144 10.766, 7 11.558, 7 22 C 7 32.442, 7.144 33.234, 9.455 35.545 C 11.766 37.856, 12.558 38, 23 38 C 33.442 38, 34.234 37.856, 36.545 35.545 C 38.856 33.234, 39 32.442, 39 22 C 39 11.558, 38.856 10.766, 36.545 8.455 C 34.234 6.144, 33.442 6, 23 6 C 12.558 6, 11.766 6.144, 9.455 8.455 M 20 24 L 20 31 24 31 C 26.200 31, 28 30.550, 28 30 C 28 29.450, 26.875 29, 25.500 29 C 23.111 29, 23 28.733, 23 23 C 23 18.333, 22.667 17, 21.500 17 C 20.310 17, 20 18.444, 20 24" stroke="none" fill="#000000" fill-rule="evenodd"/>
</svg>